<?xml version="1.0" encoding="UTF-8" standalone="no"?>
<svg
   xmlns:dc="http://purl.org/dc/elements/1.1/"
   xmlns:cc="http://creativecommons.org/ns#"
   xmlns:rdf="http://www.w3.org/1999/02/22-rdf-syntax-ns#"
   xmlns:svg="http://www.w3.org/2000/svg"
   xmlns="http://www.w3.org/2000/svg"
   width="137.06024mm"
   height="137.06024mm"
   viewBox="0 0 485.64652 485.64652"
   id="svg2"
   version="1.1">
  <defs
     id="defs4" />
  <metadata
     id="metadata7">
    <rdf:RDF>
      <cc:Work
         rdf:about="">
        <dc:format>image/svg+xml</dc:format>
        <dc:type
           rdf:resource="http://purl.org/dc/dcmitype/StillImage" />
        <dc:title></dc:title>
      </cc:Work>
    </rdf:RDF>
  </metadata>
  <g
     id="layer1"
     transform="translate(-102.48407,-321.70791)">
    <path
       style="font-style:normal;font-variant:normal;font-weight:normal;font-stretch:normal;font-size:medium;line-height:125%;font-family:KiloGram;-inkscape-font-specification:KiloGram;text-align:start;letter-spacing:0px;word-spacing:0px;text-anchor:start;fill:#000000;fill-opacity:1;stroke:none;stroke-width:1px;stroke-linecap:butt;stroke-linejoin:miter;stroke-opacity:1"
       d="m 272.63839,321.70789 -151.01172,151.00981 151.01172,0 0,-151.00981 z m 35.93359,0 0,151.00981 51.97852,0 c 31.90379,0 57.42578,25.5239 57.42578,57.4277 0,31.1949 -25.522,57.4277 -57.42578,57.4277 l -87.91211,0 0,-78.9218 -151.01172,0 0,298.7031 151.01172,0 0,-69.4805 87.91211,0 c 57.42682,0 107.05531,-20.5592 147.46679,-60.9707 40.41147,-40.4115 60.97069,-89.3309 60.97071,-146.7578 0,-57.4268 -20.55924,-107.0553 -60.97071,-147.46681 -40.41148,-40.4115 -90.03998,-60.9707 -147.46679,-60.9707 l -51.97852,0 z"
       id="path4157" />
  </g>
</svg>
