<?xml version="1.0" encoding="UTF-8" standalone="no"?>
<!-- Created with Inkscape (http://www.inkscape.org/) -->

<svg
   xmlns:dc="http://purl.org/dc/elements/1.1/"
   xmlns:cc="http://creativecommons.org/ns#"
   xmlns:rdf="http://www.w3.org/1999/02/22-rdf-syntax-ns#"
   xmlns:svg="http://www.w3.org/2000/svg"
   xmlns="http://www.w3.org/2000/svg"
   version="1.1"
   width="189.3"
   height="201.08749"
   id="svg4193"
   xml:space="preserve"><metadata
     id="metadata4199"><rdf:RDF><cc:Work
         rdf:about=""><dc:format>image/svg+xml</dc:format><dc:type
           rdf:resource="http://purl.org/dc/dcmitype/StillImage" /><dc:title></dc:title></cc:Work></rdf:RDF></metadata><defs
     id="defs4197" /><g
     transform="matrix(1.25,0,0,-1.25,0,201.0875)"
     id="g4201"><g
       id="g4725"><path
         d="m 75.5879,75.3926 -21.9895,30.2324 0,-21.9883 8.7961,0 0,-21.7129 -40.6797,0 0,21.7129 8.2454,0 0,33.8063 -8.2454,0 0,21.715 31.954,0 22.0265,-30.508 22.0742,30.508 31.9515,0 0,-21.715 -8.246,0 0,-33.8063 8.246,0 0,-21.7129 -40.6772,0 0,21.7129 8.7941,0 0,21.9883 -22.25,-30.2324"
         id="path4207"
         style="fill:#fccb06;fill-opacity:1;fill-rule:nonzero;stroke:none" /><path
         d="m 100.054,28.516 0,-0.7801 c -1.313,-0.082 -1.313,-0.4527 -1.3497,-3.205 l 0,-1.0899 c -1.1281,-0.6969 -2.7375,-1.7051 -5.5852,-1.7051 -4.9921,0 -7.3769,3.7821 -7.3769,7.5821 0,4.6429 3.1433,7.6621 7.0832,7.6621 2.4773,0 3.9019,-0.9231 5.0855,-1.6422 l 0.7579,0.8633 0.1105,-4.541 -0.5918,-0.1032 c -0.2949,0.8629 -0.7395,1.859 -1.8301,2.9489 -0.4804,0.4722 -1.4062,1.0781 -2.8672,1.0781 -2.5332,0 -4.6418,-2.1371 -4.6418,-6.309 0,-3.3281 1.6457,-6.1828 4.4746,-6.1828 1.6086,0 2.4407,1.1308 2.5149,1.2129 0.259,0.3898 0.3184,0.7379 0.2961,1.3769 -0.0656,1.8469 -0.3149,1.8879 -1.9238,2.0539 l 0,0.7801 5.8438,0 z m 14.319,-6.4109 0,0.7801 c 1.192,0.0617 1.644,0.082 1.809,0.9039 0.205,0.9668 0.266,9.5738 0.287,11.0738 -0.801,0.7391 -1.13,0.8832 -2.096,0.9652 l 0,0.7809 4.356,0 c 1.212,-1.7262 1.479,-2.1149 3.616,-4.7649 l 4.047,-5.014 0,6.4918 c -0.021,2.3011 -0.082,2.4242 -2.383,2.5062 l 0,0.7809 5.712,0 0,-0.7809 c -1.582,-0.0191 -1.726,-0.35 -1.746,-2.7109 l -0.206,-11.1973 -0.863,0 -1.295,1.6231 c -0.657,0.8218 -1.314,1.6422 -1.972,2.4449 l -5.732,7.0711 0,-7.5238 c 0,-2.3422 0.164,-2.4243 2.383,-2.65 l 0,-0.7801 -5.917,0 z m -80.0644,0 0,0.7801 c 1.8293,0.1226 1.8293,0.2046 1.8496,2.8957 l 0,7.2953 -5.0742,-11.1563 -1.2742,0 -4.6582,11.3031 -0.1086,-8.53 c 0,-1.418 0.1648,-1.6852 1.7058,-1.8078 l 0,-0.7801 -5.034,0 0,0.7801 c 1.1707,0.0617 1.6231,0.2257 1.7051,1.2128 0.041,0.3899 0.1028,1.6032 0.1239,2.404 l 0.205,6.08 c 0.0207,0.4731 0.0207,1.1719 0.0207,1.686 0,1.4371 -0.2882,1.541 -1.582,1.5601 l 0,0.7809 4.5605,0 4.5208,-11.011 4.9714,11.011 4.4168,0 0,-0.8629 c -1.7254,-0.102 -1.7461,-0.2871 -1.7254,-2.5473 l 0,-5.9777 c 0,-0.9871 0.0204,-2.2191 0.0821,-2.959 0.082,-1.0691 0.4929,-1.2742 1.6433,-1.3769 l 0,-0.7801 -6.3484,0 z m 7.7707,0 0,0.7801 c 1.418,0.1847 1.7051,0.3488 1.7254,1.8707 l 0,7.7242 c -0.0203,3.0199 -0.0203,3.1019 -1.7254,3.348 l 0,0.7809 6.0223,0 0,-0.7809 c -1.7051,-0.164 -1.7051,-0.2461 -1.7051,-3.348 l 0,-5.8551 c 0,-0.5141 0.0207,-2.1371 0.0613,-2.568 0.1027,-0.8832 0.5141,-1.0898 1.6438,-1.1718 l 0,-0.7801 -6.0223,0 z m 37.2195,0 0,0.7801 c 1.4192,0.1847 1.7071,0.3488 1.7278,1.8707 l 0,7.7242 c -0.0207,3.0199 -0.0207,3.1019 -1.7278,3.348 l 0,0.7809 6.0293,0 0,-0.7809 C 83.623,35.6641 83.623,35.582 83.623,32.4801 l 0,-5.8551 c 0,-0.5141 0.0208,-2.1371 0.0625,-2.568 0.1028,-0.8832 0.5137,-1.0898 1.6426,-1.1718 l 0,-0.7801 -6.0293,0 z m -16.5359,0 0,0.7801 c 1.6434,0.1437 1.6641,0.4937 1.6641,1.8898 0.0203,0.5141 0.0203,1.0281 0.0203,1.541 l 0,6.082 c 0,0.9442 0,1.8891 -0.0618,2.3418 -0.082,0.8622 -0.4929,0.9872 -1.6226,1.0883 l 0,0.7809 6.2098,0 0,-0.7809 C 67.7598,35.7051 67.3086,35.6641 67.1641,34.8629 67.0613,34.391 67.041,33.3219 67.041,32.459 l 0,-2.0039 c 1.2528,-0.061 2.127,-0.102 3.3391,-0.102 1.232,0 2.2078,0.041 3.4414,0.102 l 0,2.4359 c -0.0207,2.65 -0.041,2.7531 -2.0141,2.9371 l 0,0.7809 6.291,0 0,-0.7809 C 76.4121,35.623 76.4121,35.602 76.4121,32.85 l 0,-6.123 c 0,-0.575 0.0203,-2.4051 0.082,-2.834 0.1028,-0.7621 0.5352,-0.9051 1.6043,-1.0078 l 0,-0.7801 -6.291,0 0,0.7801 c 1.4594,0.166 1.8489,0.2046 1.9731,1.2128 0.041,0.4098 0.041,0.9641 0.041,2.0129 l 0,2.6602 c -1.1504,0.041 -2.1067,0.1019 -3.2981,0.1019 -1.2531,0 -2.2296,-0.039 -3.4824,-0.1019 l 0,-2.6602 c 0.0203,-3.0211 0.0613,-3.0211 1.9317,-3.2257 l 0,-0.7801 -6.2098,0 z m -1.0727,3.225 c -0.6433,-1.0469 -2.1851,-3.6153 -6.1875,-3.6153 -4.3711,0 -7.2019,3.2243 -7.2019,7.4571 0,3.9242 2.4012,7.7871 7.3,7.7871 2.5762,0 3.943,-1.0899 4.782,-1.7461 l 0.9949,0.9043 0.0786,-4.3961 -0.645,-0.125 c -0.2527,0.843 -0.6238,1.5211 -1.5601,2.548 -0.4492,0.4731 -1.5227,1.4161 -3.0449,1.4161 -2.6157,0 -4.6848,-2.134 -4.6848,-5.8942 0,-3.1859 1.698,-6.1859 5.0555,-6.1859 2.5375,0 3.4882,1.416 4.25,2.5039 l 0.8632,-0.6539 z m 45.0298,8.4179 -2.132,-6.0121 4.167,0 -2.035,6.0121 z m 1.298,-11.6429 0,0.7801 c 0.986,0.0617 1.747,0.1437 1.747,0.9449 0,0.2871 -0.083,0.5961 -0.165,0.8629 l -0.435,1.4808 -5.115,0 -0.449,-1.2539 c -0.103,-0.309 -0.185,-0.598 -0.185,-0.9039 0,-1.0281 1.089,-1.0898 1.972,-1.1308 l 0,-0.7801 -5.9786,0 0,0.7801 c 1.5206,0.0617 2.0136,0.3707 2.5686,1.8898 l 3.923,10.766 -0.225,0.35 c 1.684,0.5539 2.157,0.8 2.876,1.336 0.288,-0.9872 0.329,-1.1098 0.658,-2.1372 l 3.205,-9.8617 c 0.575,-1.748 0.842,-2.1769 2.383,-2.3429 l 0,-0.7801 -6.78,0"
         id="path4209"
         style="fill:#ffffff;fill-opacity:1;fill-rule:nonzero;stroke:none" /><path
         d="m 70.1133,44.2871 c 0.0137,-2.1992 0.0137,-2.4961 1.168,-2.5211 l 0,-0.532 -4.004,0 0,0.532 c 1.0325,0.0801 1.1407,0.2442 1.1543,1.275 0.0137,0.3942 0.0137,0.8399 0.0137,1.234 l 0,3.4691 c 0,1.1539 -0.0137,1.561 -0.0547,1.8731 -0.0676,0.5289 -0.3254,0.625 -1.1133,0.6918 l 0,0.5172 4.345,-0.0172 c 2.3621,0 3.109,-1.127 3.109,-2.457 0,-0.9239 -0.5704,-2.125 -1.8875,-2.534 l 1.6984,-2.9532 c 0.6109,-1.1269 0.9363,-1.3867 1.7105,-1.4937 l 0,-0.3262 c -0.2039,-0.014 -0.407,-0.0269 -0.625,-0.0269 -1.8054,0 -2.5523,0.625 -3.3132,2.2398 l -0.5301,1.1293 c -0.5696,1.207 -0.7602,1.132 -1.6699,1.1461 l -0.0012,-1.2461 z m 0.0012,2.0879 c 0.2578,-0.0531 0.625,-0.0941 0.896,-0.0941 1.0911,-0.0039 1.9153,0.8519 1.9551,1.6191 0.0586,1.1141 -0.5015,2.077 -2.2676,2.077 -0.2437,0 -0.3933,-0.0141 -0.5835,-0.0551 l 0,-3.5469 z m -3.959,-5.141 c 0,0.6922 0.1218,1.834 0.2039,2.4851 l -0.4629,0 c -0.3262,-1.7113 -1.2902,-1.6293 -2.6758,-1.6293 -1.2766,0 -1.5344,0.3403 -1.5344,0.9653 l 0,2.6808 1.0325,0 c 1.1816,0 1.5207,-0.1007 1.5207,-1.1757 l 0.4617,0 0,3.1668 -0.4617,0 c -0.095,-0.8559 -0.2715,-1.1348 -1.5082,-1.1348 l -1.045,0 0,3.3769 1.1821,0 c 1.6289,0 2.2136,-0.123 2.4304,-1.4261 l 0.4348,0 -0.0551,2.2808 -6.8308,0 0,-0.5148 c 0.6921,-0.0692 0.9914,-0.1102 1.0871,-0.557 0.0672,-0.2989 0.0808,-1.3579 0.0808,-1.7379 l 0,-3.3711 c 0,-0.2578 -0.0136,-1.4129 -0.0273,-1.643 -0.0274,-1.0469 -0.1492,-1.141 -1.1406,-1.2359 l 0,-0.5301 7.3078,0 z m 34.7995,0 0,0.516 c 0.747,0.082 1.032,0.109 1.223,0.2988 0.218,0.2172 0.218,0.4614 0.23,1.5082 l 0,1.6828 -2.5525,3.9532 c -0.6922,1.032 -0.7063,1.059 -1.6297,1.114 l 0,0.5289 4.9982,0 0,-0.5289 c -1.005,-0.0281 -1.453,-0.055 -1.453,-0.516 0,-0.2578 0.176,-0.557 0.42,-0.9648 l 1.468,-2.4024 1.357,2.3883 c 0.245,0.475 0.38,0.7598 0.38,0.9789 0,0.461 -0.393,0.475 -1.059,0.516 l 0,0.5289 3.749,0 0,-0.5289 c -0.965,-0.0281 -1.25,-0.3129 -2.35,-2.1058 l -1.494,-2.4981 0,-1.998 c 0,-1.7379 0.014,-1.8731 1.44,-1.9551 l 0,-0.516 -4.727,0 z m -42.5175,9.5879 0,-0.5149 c -0.923,-0.1371 -1.0457,-0.3949 -1.8328,-2.2949 l -2.9199,-6.9691 -0.5168,0 -2.6211,7.0761 c -0.6516,1.82 -0.7332,2.0368 -1.6973,2.1879 l 0,0.5149 4.5496,0 0,-0.5149 c -0.7742,-0.0281 -1.2769,-0.055 -1.2769,-0.6121 0,-0.2711 0.0679,-0.5019 0.3257,-1.3039 l 1.6711,-4.875 1.9551,5.0391 c 0.1231,0.339 0.2852,0.773 0.2852,1.0168 0,0.6941 -0.6785,0.7211 -1.2766,0.7351 l 0,0.5149 3.3547,0 z m -32.4973,0 0,-0.5149 c -1.2761,-0.0961 -1.2761,-0.1371 -1.2898,-2.1742 l 0,-2.2539 c 0,-1.168 0.0226,-2.1699 0.6387,-3.0699 0.4902,-0.7149 1.3242,-0.807 1.7453,-0.807 1.3711,0 2.125,0.7128 2.4511,1.8402 0.2711,0.8957 0.2848,2.5797 0.2848,3.693 0,0.3539 0,1.4937 -0.0137,1.807 -0.0546,0.8687 -0.5015,0.8957 -1.3582,0.9648 l 0,0.5149 3.6543,0 0,-0.5149 c -0.8964,0.0129 -1.0871,-0.1922 -1.1418,-1.141 -0.0132,-0.232 -0.1218,-2.8949 -0.1355,-3.3012 -0.0274,-0.732 -0.0676,-1.4527 -0.2305,-2.1457 -0.6523,-2.58 -3.1648,-2.7152 -3.8301,-2.7152 -0.53,0 -1.6164,0.0801 -2.5128,0.6781 -1.4254,0.9641 -1.4391,2.4039 -1.4391,3.9532 l 0,2.1718 c -0.0141,1.0328 -0.0141,1.4942 -0.041,1.7379 -0.0813,0.5981 -0.3801,0.7211 -1.0996,0.7621 l 0,0.5149 4.3179,0 z m 65.1379,-9.5879 0,0.407 c 0.8836,0.0129 1.1282,0.3391 1.1282,1.1012 l 0,7.0629 -1.1958,0 c -1.0867,0 -1.8062,0.041 -1.8875,-1.6699 l -0.5031,0 0.0821,2.6886 8.7191,0 0.0816,-2.6886 -0.5027,0 c -0.0812,1.7109 -0.8008,1.6699 -1.8879,1.6699 l -1.1949,0 0,-7.0629 c 0,-0.7621 0.2437,-1.0883 1.1266,-1.1012 l 0.0011,-0.407 -3.9668,0 z m -14.7922,2.989 0.4895,0.052 c 0.5305,-1.5602 1.4148,-2.402 2.8555,-2.402 1.0214,0 1.9179,0.434 1.9179,1.4668 0,1.0864 -1.0468,1.5192 -1.509,1.7114 -0.3816,0.1476 -0.7886,0.2707 -1.1699,0.4199 -0.7886,0.2848 -2.2715,0.8961 -2.2715,2.757 0,1.793 1.4153,2.7969 3.0598,2.7969 0.6398,0 1.3879,-0.134 2.2031,-0.65 l 0.5828,0.4199 0.3125,-2.8519 -0.4746,-0.095 c -0.1629,0.625 -0.2859,0.9161 -0.666,1.42 -0.4617,0.5968 -1.114,0.875 -1.8758,0.875 -1.0195,0 -1.6179,-0.4891 -1.6179,-1.2489 0,-1.1402 1.1289,-1.5211 2.2031,-1.875 0.5437,-0.175 0.9922,-0.3261 1.3855,-0.5562 0.761,-0.4488 1.386,-1.291 1.386,-2.4449 0,-1.6571 -1.3586,-3.0282 -3.384,-3.0282 -1.3059,0 -2.1082,0.5161 -2.4883,0.7602 l -0.8,0.584 -0.1387,1.889 z m -43.5086,-2.989 0,0.516 c 0.7879,0.041 1.0872,0.0551 1.1954,0.598 0.1359,0.6379 0.1765,6.3282 0.1906,7.32 -0.5305,0.4879 -0.7473,0.584 -1.386,0.639 l 0,0.5149 2.879,0 c 0.8015,-1.1399 0.9785,-1.3981 2.3906,-3.15 l 2.6758,-3.3149 0,4.291 c -0.0137,1.5219 -0.0547,1.604 -1.5762,1.659 l 0,0.5149 3.7765,0 0,-0.5149 c -1.046,-0.014 -1.141,-0.2308 -1.1542,-1.7929 l -0.136,-7.4032 -0.5715,0 -0.855,1.0731 c -0.4348,0.5441 -0.8696,1.0871 -1.304,1.6172 l -3.789,4.6738 0,-4.973 c 0,-1.5489 0.1086,-1.604 1.5754,-1.752 l 0,-0.516 -3.9114,0 z m 50.9485,0 0,0.516 c 0.9375,0.123 1.1277,0.2301 1.1414,1.2359 l 0,5.1063 c -0.0137,1.9976 -0.0137,2.0508 -1.1414,2.2148 l 0,0.5149 3.9805,0 0,-0.5149 c -1.127,-0.1101 -1.127,-0.164 -1.127,-2.2148 l 0,-3.8692 c 0,-0.3402 0.0137,-1.414 0.0406,-1.7 0.0676,-0.5839 0.3403,-0.7179 1.0864,-0.773 l 0,-0.516 -3.9805,0 z m -39.7707,0 0,0.516 c 0.9367,0.123 1.1269,0.2301 1.1406,1.2359 l 0,5.1063 C 45.082,50.0898 45.082,50.143 43.9551,50.307 l 0,0.5149 3.9824,0 0,-0.5149 c -1.127,-0.1101 -1.127,-0.164 -1.127,-2.2148 l 0,-3.8692 c 0,-0.3402 0.0137,-1.414 0.0411,-1.7 0.0672,-0.5839 0.3398,-0.7179 1.0859,-0.773 l 0,-0.516 -3.9824,0 z m 78.4919,0.4609 0,-0.5289 3.971,0 0,0.5289 c -0.991,0.0961 -1.113,0.1922 -1.141,1.2371 l 0.007,2.736 1.06,0 c 1.072,0 1.642,-0.102 1.711,-1.1739 l 0.462,0 0,3.1641 -0.462,0 C 128,46.625 127.715,46.523 126.547,46.523 l -1.263,0 10e-4,3.3211 c 0.34,0.0411 0.53,0.0539 1.142,0.0539 1.874,0 2.478,0.0079 2.729,-1.4941 l 0.476,0 -0.15,2.35 -7.034,0 0,-0.516 c 0.693,-0.068 0.991,-0.109 1.086,-0.5559 0.069,-0.2992 0.082,-1.3582 0.082,-1.739 l -0.002,-3.3692 c 0,-0.2578 -0.013,-1.4117 -0.027,-1.6418 -0.026,-1.0449 -0.149,-1.141 -1.14,-1.2371 z m -5.255,0.1102 c 0.542,0.0148 1.306,0.2847 1.899,1.1847 0.678,1.0411 0.816,1.9961 0.778,3.2442 -0.038,1.2371 -0.383,2.2992 -1.088,3.0512 -0.308,0.3296 -0.916,0.8148 -1.716,0.791 -0.799,0 -1.391,-0.5043 -1.69,-0.8422 -0.682,-0.7731 -0.993,-1.8469 -0.993,-3.084 0,-1.25 0.168,-2.1988 0.877,-3.218 0.62,-0.8832 1.391,-1.1269 1.933,-1.1269 z m 4.789,4.1699 c 0,-3.3148 -2.257,-5.0531 -4.799,-5.0531 -2.787,0 -4.968,2.0101 -4.968,5.066 0,2.6211 1.755,4.9851 4.839,4.9711 2.903,-0.0141 4.928,-2.0781 4.928,-4.984"
         id="path4211"
         style="fill:#ffffff;fill-opacity:1;fill-rule:nonzero;stroke:none" /></g></g></svg>